<svg xmlns="http://www.w3.org/2000/svg" viewBox="0 0 416.08 416.08"><defs><style>.cls-1{fill:#262628;stroke:#39bfc2;stroke-miterlimit:10;stroke-width:8px;}.cls-2{fill:#33c1d1;}</style></defs><title>Asset 14</title><g id="Layer_2" data-name="Layer 2"><g id="Layer_1-2" data-name="Layer 1"><circle class="cls-1" cx="208.04" cy="208.04" r="204.04"/><circle class="cls-2" cx="208.04" cy="233.24" r="3.54"/><circle class="cls-2" cx="209.15" cy="233.22" r="3.54"/><circle class="cls-2" cx="210.26" cy="233.13" r="3.54"/><circle class="cls-2" cx="211.36" cy="232.98" r="3.54"/><circle class="cls-2" cx="212.46" cy="232.78" r="3.54"/><circle class="cls-2" cx="213.54" cy="232.52" r="3.54"/><circle class="cls-2" cx="214.6" cy="232.21" r="3.54"/><circle class="cls-2" cx="215.65" cy="231.83" r="3.54"/><circle class="cls-2" cx="216.68" cy="231.41" r="3.54"/><circle class="cls-2" cx="217.68" cy="230.93" r="3.54"/><circle class="cls-2" cx="218.66" cy="230.4" r="3.54"/><circle class="cls-2" cx="219.61" cy="229.82" r="3.54"/><circle class="cls-2" cx="220.53" cy="229.19" r="3.54"/><circle class="cls-2" cx="221.41" cy="228.51" r="3.54"/><circle class="cls-2" cx="222.26" cy="227.79" r="3.54"/><circle class="cls-2" cx="223.06" cy="227.02" r="3.54"/><circle class="cls-2" cx="223.83" cy="226.22" r="3.54"/><circle class="cls-2" cx="224.55" cy="225.37" r="3.54"/><circle class="cls-2" cx="225.23" cy="224.49" r="3.54"/><circle class="cls-2" cx="225.86" cy="223.57" r="3.54"/><circle class="cls-2" cx="226.44" cy="222.62" r="3.54"/><circle class="cls-2" cx="226.97" cy="221.64" r="3.54"/><circle class="cls-2" cx="227.45" cy="220.64" r="3.54"/><circle class="cls-2" cx="227.87" cy="219.61" r="3.54"/><circle class="cls-2" cx="228.24" cy="218.56" r="3.54"/><circle class="cls-2" cx="228.56" cy="217.5" r="3.54"/><circle class="cls-2" cx="228.82" cy="216.42" r="3.54"/><circle class="cls-2" cx="229.02" cy="215.32" r="3.54"/><circle class="cls-2" cx="229.17" cy="214.22" r="3.54"/><circle class="cls-2" cx="229.17" cy="213.32" r="3.54"/><circle class="cls-2" cx="229.28" cy="212" r="3.54"/><circle class="cls-2" cx="229.26" cy="210.89" r="3.54"/><circle class="cls-2" cx="229.17" cy="209.78" r="3.54"/><circle class="cls-2" cx="229.02" cy="208.68" r="3.54"/><circle class="cls-2" cx="228.82" cy="207.58" r="3.54"/><circle class="cls-2" cx="228.56" cy="206.5" r="3.54"/><circle class="cls-2" cx="228.24" cy="205.43" r="3.54"/><circle class="cls-2" cx="227.87" cy="204.39" r="3.54"/><circle class="cls-2" cx="227.45" cy="203.36" r="3.54"/><circle class="cls-2" cx="226.97" cy="202.35" r="3.54"/><circle class="cls-2" cx="226.44" cy="201.38" r="3.54"/><circle class="cls-2" cx="225.86" cy="200.43" r="3.54"/><circle class="cls-2" cx="225.23" cy="199.51" r="3.54"/><circle class="cls-2" cx="224.55" cy="198.63" r="3.54"/><circle class="cls-2" cx="223.83" cy="197.78" r="3.54"/><circle class="cls-2" cx="223.06" cy="196.98" r="3.54"/><circle class="cls-2" cx="222.26" cy="196.21" r="3.54"/><circle class="cls-2" cx="221.41" cy="195.49" r="3.54"/><circle class="cls-2" cx="195.55" cy="194.81" r="3.54"/><circle class="cls-2" cx="194.67" cy="195.49" r="3.54"/><circle class="cls-2" cx="193.82" cy="196.21" r="3.54"/><circle class="cls-2" cx="193.02" cy="196.98" r="3.54"/><circle class="cls-2" cx="192.25" cy="197.78" r="3.54"/><circle class="cls-2" cx="191.53" cy="198.63" r="3.54"/><circle class="cls-2" cx="190.85" cy="199.51" r="3.54"/><circle class="cls-2" cx="190.22" cy="200.43" r="3.54"/><circle class="cls-2" cx="189.64" cy="201.38" r="3.54"/><circle class="cls-2" cx="189.11" cy="202.35" r="3.54"/><circle class="cls-2" cx="188.63" cy="203.36" r="3.54"/><circle class="cls-2" cx="188.21" cy="204.39" r="3.54"/><circle class="cls-2" cx="187.83" cy="205.43" r="3.54"/><circle class="cls-2" cx="187.52" cy="206.5" r="3.54"/><circle class="cls-2" cx="187.26" cy="207.58" r="3.54"/><circle class="cls-2" cx="187.06" cy="208.68" r="3.54"/><circle class="cls-2" cx="186.91" cy="209.78" r="3.54"/><circle class="cls-2" cx="186.82" cy="210.89" r="3.54"/><circle class="cls-2" cx="186.79" cy="212" r="3.54"/><circle class="cls-2" cx="186.82" cy="213.11" r="3.54"/><circle class="cls-2" cx="186.91" cy="214.22" r="3.54"/><circle class="cls-2" cx="187.06" cy="215.32" r="3.54"/><circle class="cls-2" cx="187.26" cy="216.42" r="3.54"/><circle class="cls-2" cx="187.52" cy="217.5" r="3.54"/><circle class="cls-2" cx="187.83" cy="218.56" r="3.54"/><circle class="cls-2" cx="188.21" cy="219.61" r="3.54"/><circle class="cls-2" cx="188.63" cy="220.64" r="3.54"/><circle class="cls-2" cx="189.11" cy="221.64" r="3.54"/><circle class="cls-2" cx="189.64" cy="222.62" r="3.54"/><circle class="cls-2" cx="190.22" cy="223.57" r="3.54"/><circle class="cls-2" cx="190.85" cy="224.49" r="3.54"/><circle class="cls-2" cx="191.53" cy="225.37" r="3.54"/><circle class="cls-2" cx="192.25" cy="226.22" r="3.54"/><circle class="cls-2" cx="193.02" cy="227.02" r="3.54"/><circle class="cls-2" cx="193.82" cy="227.79" r="3.54"/><circle class="cls-2" cx="194.67" cy="228.51" r="3.54"/><circle class="cls-2" cx="195.55" cy="229.19" r="3.54"/><circle class="cls-2" cx="196.47" cy="229.82" r="3.54"/><circle class="cls-2" cx="197.42" cy="230.4" r="3.54"/><circle class="cls-2" cx="198.39" cy="230.93" r="3.54"/><circle class="cls-2" cx="199.4" cy="231.41" r="3.54"/><circle class="cls-2" cx="200.43" cy="231.83" r="3.54"/><circle class="cls-2" cx="201.47" cy="232.21" r="3.54"/><circle class="cls-2" cx="202.54" cy="232.52" r="3.54"/><circle class="cls-2" cx="203.62" cy="232.78" r="3.54"/><circle class="cls-2" cx="204.72" cy="232.98" r="3.54"/><circle class="cls-2" cx="205.82" cy="233.13" r="3.54"/><circle class="cls-2" cx="206.93" cy="233.22" r="3.54"/><rect class="cls-2" x="205.24" y="179.29" width="5.59" height="23.39" rx="2.8"/><circle class="cls-2" cx="221.52" cy="195.49" r="3.54"/></g></g></svg>