<svg xmlns="http://www.w3.org/2000/svg" viewBox="0 0 49.57 57.49"><defs><style>.cls-1{fill:#33c1d1;}</style></defs><title>Asset 10</title><g id="Layer_2" data-name="Layer 2"><g id="Layer_1-2" data-name="Layer 1"><circle class="cls-1" cx="24.79" cy="53.95" r="3.54"/><circle class="cls-1" cx="25.9" cy="53.92" r="3.54"/><circle class="cls-1" cx="27.01" cy="53.83" r="3.54"/><circle class="cls-1" cx="28.11" cy="53.69" r="3.54"/><circle class="cls-1" cx="29.2" cy="53.49" r="3.54"/><circle class="cls-1" cx="30.28" cy="53.23" r="3.54"/><circle class="cls-1" cx="31.35" cy="52.91" r="3.54"/><circle class="cls-1" cx="32.4" cy="52.54" r="3.54"/><circle class="cls-1" cx="33.43" cy="52.11" r="3.54"/><circle class="cls-1" cx="34.43" cy="51.64" r="3.54"/><circle class="cls-1" cx="35.41" cy="51.1" r="3.54"/><circle class="cls-1" cx="36.36" cy="50.52" r="3.54"/><circle class="cls-1" cx="37.27" cy="49.89" r="3.54"/><circle class="cls-1" cx="38.16" cy="49.22" r="3.54"/><circle class="cls-1" cx="39" cy="48.49" r="3.54"/><circle class="cls-1" cx="39.81" cy="47.73" r="3.54"/><circle class="cls-1" cx="40.57" cy="46.92" r="3.54"/><circle class="cls-1" cx="41.3" cy="46.08" r="3.54"/><circle class="cls-1" cx="41.97" cy="45.19" r="3.54"/><circle class="cls-1" cx="42.6" cy="44.28" r="3.54"/><circle class="cls-1" cx="43.18" cy="43.33" r="3.54"/><circle class="cls-1" cx="43.72" cy="42.35" r="3.54"/><circle class="cls-1" cx="44.19" cy="41.35" r="3.54"/><circle class="cls-1" cx="44.62" cy="40.32" r="3.54"/><circle class="cls-1" cx="44.99" cy="39.27" r="3.54"/><circle class="cls-1" cx="45.31" cy="38.2" r="3.54"/><circle class="cls-1" cx="45.57" cy="37.12" r="3.54"/><circle class="cls-1" cx="45.77" cy="36.03" r="3.54"/><circle class="cls-1" cx="45.91" cy="34.93" r="3.54"/><circle class="cls-1" cx="45.91" cy="34.03" r="3.54"/><circle class="cls-1" cx="46.03" cy="32.71" r="3.54"/><circle class="cls-1" cx="46" cy="31.59" r="3.54"/><circle class="cls-1" cx="45.91" cy="30.49" r="3.54"/><circle class="cls-1" cx="45.77" cy="29.38" r="3.54"/><circle class="cls-1" cx="45.57" cy="28.29" r="3.54"/><circle class="cls-1" cx="45.31" cy="27.21" r="3.54"/><circle class="cls-1" cx="44.99" cy="26.14" r="3.54"/><circle class="cls-1" cx="44.62" cy="25.09" r="3.54"/><circle class="cls-1" cx="44.19" cy="24.07" r="3.54"/><circle class="cls-1" cx="43.72" cy="23.06" r="3.54"/><circle class="cls-1" cx="43.18" cy="22.08" r="3.54"/><circle class="cls-1" cx="42.6" cy="21.14" r="3.54"/><circle class="cls-1" cx="41.97" cy="20.22" r="3.54"/><circle class="cls-1" cx="41.3" cy="19.34" r="3.54"/><circle class="cls-1" cx="40.57" cy="18.49" r="3.54"/><circle class="cls-1" cx="39.81" cy="17.68" r="3.54"/><circle class="cls-1" cx="39" cy="16.92" r="3.54"/><circle class="cls-1" cx="38.16" cy="16.2" r="3.54"/><circle class="cls-1" cx="12.3" cy="15.52" r="3.54"/><circle class="cls-1" cx="11.42" cy="16.2" r="3.54"/><circle class="cls-1" cx="10.57" cy="16.92" r="3.54"/><circle class="cls-1" cx="9.76" cy="17.68" r="3.54"/><circle class="cls-1" cx="9" cy="18.49" r="3.54"/><circle class="cls-1" cx="8.28" cy="19.34" r="3.54"/><circle class="cls-1" cx="7.6" cy="20.22" r="3.54"/><circle class="cls-1" cx="6.97" cy="21.14" r="3.54"/><circle class="cls-1" cx="6.39" cy="22.08" r="3.54"/><circle class="cls-1" cx="5.86" cy="23.06" r="3.54"/><circle class="cls-1" cx="5.38" cy="24.07" r="3.54"/><circle class="cls-1" cx="4.95" cy="25.09" r="3.54"/><circle class="cls-1" cx="4.58" cy="26.14" r="3.54"/><circle class="cls-1" cx="4.26" cy="27.21" r="3.54"/><circle class="cls-1" cx="4.01" cy="28.29" r="3.54"/><circle class="cls-1" cx="3.8" cy="29.38" r="3.54"/><circle class="cls-1" cx="3.66" cy="30.49" r="3.54"/><circle class="cls-1" cx="3.57" cy="31.59" r="3.54"/><circle class="cls-1" cx="3.54" cy="32.71" r="3.54"/><circle class="cls-1" cx="3.57" cy="33.82" r="3.54"/><circle class="cls-1" cx="3.66" cy="34.93" r="3.54"/><circle class="cls-1" cx="3.8" cy="36.03" r="3.54"/><circle class="cls-1" cx="4.01" cy="37.12" r="3.54"/><circle class="cls-1" cx="4.26" cy="38.2" r="3.54"/><circle class="cls-1" cx="4.58" cy="39.27" r="3.54"/><circle class="cls-1" cx="4.95" cy="40.32" r="3.54"/><circle class="cls-1" cx="5.38" cy="41.35" r="3.54"/><circle class="cls-1" cx="5.86" cy="42.35" r="3.54"/><circle class="cls-1" cx="6.39" cy="43.33" r="3.54"/><circle class="cls-1" cx="6.97" cy="44.28" r="3.54"/><circle class="cls-1" cx="7.6" cy="45.19" r="3.54"/><circle class="cls-1" cx="8.28" cy="46.08" r="3.54"/><circle class="cls-1" cx="9" cy="46.92" r="3.54"/><circle class="cls-1" cx="9.76" cy="47.73" r="3.54"/><circle class="cls-1" cx="10.57" cy="48.49" r="3.54"/><circle class="cls-1" cx="11.42" cy="49.22" r="3.54"/><circle class="cls-1" cx="12.3" cy="49.89" r="3.54"/><circle class="cls-1" cx="13.22" cy="50.52" r="3.54"/><circle class="cls-1" cx="14.16" cy="51.1" r="3.54"/><circle class="cls-1" cx="15.14" cy="51.64" r="3.54"/><circle class="cls-1" cx="16.14" cy="52.11" r="3.54"/><circle class="cls-1" cx="17.17" cy="52.54" r="3.54"/><circle class="cls-1" cx="18.22" cy="52.91" r="3.54"/><circle class="cls-1" cx="19.29" cy="53.23" r="3.54"/><circle class="cls-1" cx="20.37" cy="53.49" r="3.54"/><circle class="cls-1" cx="21.46" cy="53.69" r="3.54"/><circle class="cls-1" cx="22.57" cy="53.83" r="3.54"/><circle class="cls-1" cx="23.67" cy="53.92" r="3.54"/><rect class="cls-1" x="21.99" width="5.59" height="23.39" rx="2.8"/><circle class="cls-1" cx="38.26" cy="16.2" r="3.54"/></g></g></svg>