<svg xmlns="http://www.w3.org/2000/svg" viewBox="0 0 133.4 55.7"><defs><style>.cls-1{fill:none;stroke:#0e858e;stroke-miterlimit:10;stroke-width:2px;}.cls-2{fill:#0e858e;}</style></defs><title>Asset 4</title><g id="Layer_2" data-name="Layer 2"><g id="Layer_1-2" data-name="Layer 1"><rect class="cls-1" x="1" y="1" width="131.4" height="53.7" rx="12"/><path class="cls-2" d="M49.94,27.07H39.59v7.16H51l-.39,2.68h-14V15.55H50.43v2.68H39.59v6.16H49.94Z"/><path class="cls-2" d="M54.65,15.55h7.64c5.93,0,9.91,4.09,9.91,10.45s-3.88,10.91-10,10.91H54.65Zm3.11,18.7H62c4.76,0,7-3.49,7-8.2,0-4.08-2-7.85-7-7.85H57.76Z"/><path class="cls-2" d="M79.59,15.55V36.91H76.48V15.55Z"/><path class="cls-2" d="M89.49,18.23H82.8V15.55H99.31v2.68H92.62V36.91H89.49Z"/></g></g></svg>