<svg id="Layer_1" data-name="Layer 1" xmlns="http://www.w3.org/2000/svg" viewBox="0 0 508.83 481.31"><defs><style>.cls-1{fill:#414146;}</style></defs><title>Dial_v2_1</title><rect class="cls-1" x="361.06" y="450.72" width="3.83" height="33.17" rx="1.91" transform="translate(-173.18 214.73) rotate(-27)"/><rect class="cls-1" x="372" y="444.78" width="3.83" height="33.17" rx="1.91" transform="translate(-181.17 247.78) rotate(-30)"/><rect class="cls-1" x="382.62" y="438.28" width="3.83" height="33.17" rx="1.91" transform="translate(-186.28 281.83) rotate(-33)"/><rect class="cls-1" x="392.88" y="431.23" width="3.83" height="33.17" rx="1.91" transform="translate(-188.4 316.59) rotate(-36)"/><rect class="cls-1" x="402.76" y="423.65" width="3.83" height="33.17" rx="1.91" transform="translate(-187.45 351.79) rotate(-39)"/><rect class="cls-1" x="412.22" y="415.56" width="3.83" height="33.17" rx="1.91" transform="translate(-183.37 387.13) rotate(-42)"/><rect class="cls-1" x="421.26" y="406.99" width="3.83" height="33.17" rx="1.91" transform="translate(-176.15 422.3) rotate(-45)"/><rect class="cls-1" x="429.83" y="397.96" width="3.83" height="33.17" rx="1.91" transform="translate(-165.8 457.02) rotate(-48)"/><rect class="cls-1" x="437.91" y="388.49" width="3.83" height="33.17" rx="1.91" transform="translate(-152.35 490.98) rotate(-51)"/><rect class="cls-1" x="445.49" y="378.61" width="3.83" height="33.17" rx="1.91" transform="translate(-135.87 523.88) rotate(-54)"/><rect class="cls-1" x="452.55" y="368.35" width="3.83" height="33.17" rx="1.91" transform="translate(-116.47 555.44) rotate(-57)"/><rect class="cls-1" x="459.05" y="357.73" width="3.83" height="33.17" rx="1.91" transform="translate(-94.27 585.38) rotate(-60)"/><rect class="cls-1" x="464.99" y="346.79" width="3.83" height="33.17" rx="1.91" transform="translate(-69.42 613.44) rotate(-63)"/><rect class="cls-1" x="470.35" y="335.55" width="3.83" height="33.17" rx="1.91" transform="translate(-42.1 639.36) rotate(-66)"/><rect class="cls-1" x="475.12" y="324.05" width="3.83" height="33.17" rx="1.91" transform="translate(-12.51 662.92) rotate(-69)"/><rect class="cls-1" x="479.28" y="312.31" width="3.83" height="33.17" rx="1.91" transform="translate(19.11 683.91) rotate(-72)"/><rect class="cls-1" x="482.81" y="300.37" width="3.83" height="33.17" rx="1.91" transform="translate(52.53 702.15) rotate(-75)"/><rect class="cls-1" x="485.72" y="288.26" width="3.83" height="33.17" rx="1.91" transform="translate(87.48 717.46) rotate(-78)"/><rect class="cls-1" x="487.99" y="276.02" width="3.83" height="33.17" rx="1.91" transform="translate(123.68 729.72) rotate(-81)"/><rect class="cls-1" x="489.61" y="263.68" width="3.83" height="33.17" rx="1.91" transform="translate(160.84 738.82) rotate(-84)"/><rect class="cls-1" x="490.59" y="251.26" width="3.83" height="33.17" rx="1.91" transform="translate(198.66 744.67) rotate(-87)"/><rect class="cls-1" x="490.92" y="238.82" width="3.83" height="33.17" rx="1.91" transform="translate(236.84 747.25) rotate(-90)"/><rect class="cls-1" x="490.59" y="226.37" width="3.83" height="33.17" rx="1.91" transform="translate(275.07 746.51) rotate(-93)"/><rect class="cls-1" x="489.61" y="213.96" width="3.83" height="33.17" rx="1.91" transform="translate(313.04 742.49) rotate(-96)"/><rect class="cls-1" x="487.99" y="201.61" width="3.83" height="33.17" rx="1.91" transform="translate(350.45 735.21) rotate(-99)"/><rect class="cls-1" x="485.72" y="189.37" width="3.83" height="33.17" rx="1.91" transform="matrix(-0.21, -0.98, 0.98, -0.21, 386.98, 724.77)"/><rect class="cls-1" x="482.81" y="177.26" width="3.83" height="33.17" rx="1.91" transform="translate(422.36 711.24) rotate(-105)"/><rect class="cls-1" x="479.28" y="165.32" width="3.83" height="33.17" rx="1.91" transform="translate(456.3 694.77) rotate(-108)"/><rect class="cls-1" x="475.12" y="153.59" width="3.83" height="33.17" rx="1.91" transform="translate(488.54 675.52) rotate(-111)"/><rect class="cls-1" x="470.35" y="142.08" width="3.83" height="33.17" rx="1.91" transform="translate(518.82 653.66) rotate(-114)"/><rect class="cls-1" x="464.99" y="130.84" width="3.83" height="33.17" rx="1.91" transform="translate(546.94 629.39) rotate(-117)"/><rect class="cls-1" x="459.05" y="119.9" width="3.83" height="33.17" rx="1.91" transform="translate(572.67 602.95) rotate(-120)"/><rect class="cls-1" x="452.55" y="109.28" width="3.83" height="33.17" rx="1.91" transform="translate(595.83 574.58) rotate(-123)"/><rect class="cls-1" x="445.49" y="99.02" width="3.83" height="33.17" rx="1.91" transform="translate(616.28 544.54) rotate(-126)"/><rect class="cls-1" x="437.91" y="89.14" width="3.83" height="33.17" rx="1.91" transform="translate(633.87 513.09) rotate(-129)"/><rect class="cls-1" x="429.83" y="79.68" width="3.83" height="33.17" rx="1.91" transform="translate(648.51 480.53) rotate(-132)"/><rect class="cls-1" x="421.26" y="70.64" width="3.83" height="33.17" rx="1.91" transform="translate(660.13 447.15) rotate(-135)"/><rect class="cls-1" x="412.22" y="62.07" width="3.83" height="33.17" rx="1.91" transform="translate(668.69 413.24) rotate(-138)"/><rect class="cls-1" x="402.76" y="53.99" width="3.83" height="33.17" rx="1.91" transform="translate(674.16 379.1) rotate(-141)"/><rect class="cls-1" x="392.88" y="46.41" width="3.83" height="33.17" rx="1.91" transform="translate(676.58 345.02) rotate(-144)"/><rect class="cls-1" x="382.62" y="39.35" width="3.83" height="33.17" rx="1.91" transform="translate(675.98 311.3) rotate(-147)"/><rect class="cls-1" x="372" y="32.85" width="3.83" height="33.17" rx="1.91" transform="translate(672.43 278.22) rotate(-150)"/><rect class="cls-1" x="361.06" y="26.91" width="3.83" height="33.17" rx="1.91" transform="translate(666.05 246.04) rotate(-153)"/><rect class="cls-1" x="349.82" y="21.55" width="3.83" height="33.17" rx="1.91" transform="translate(656.97 215.04) rotate(-156)"/><rect class="cls-1" x="338.32" y="16.78" width="3.83" height="33.17" rx="1.91" transform="translate(645.32 185.46) rotate(-159)"/><rect class="cls-1" x="326.58" y="12.63" width="3.83" height="33.17" rx="1.91" transform="translate(631.3 157.52) rotate(-162)"/><rect class="cls-1" x="314.64" y="9.09" width="3.83" height="33.17" rx="1.91" transform="translate(615.09 131.42) rotate(-165)"/><rect class="cls-1" x="302.53" y="6.18" width="3.83" height="33.17" rx="1.91" transform="translate(596.92 107.35) rotate(-168)"/><rect class="cls-1" x="290.29" y="3.91" width="3.83" height="33.17" rx="1.91" transform="translate(577.02 85.47) rotate(-171)"/><rect class="cls-1" x="277.95" y="2.29" width="3.83" height="33.17" rx="1.91" transform="translate(555.63 65.91) rotate(-174)"/><rect class="cls-1" x="265.53" y="1.31" width="3.83" height="33.17" rx="1.91" transform="translate(533.01 48.78) rotate(-177)"/><rect class="cls-1" x="253.09" y="0.99" width="3.83" height="33.17" rx="1.91" transform="translate(509.42 34.15) rotate(180)"/><rect class="cls-1" x="240.64" y="1.31" width="3.83" height="33.17" rx="1.91" transform="matrix(-1, 0.05, -0.05, -1, 485.13, 22.09)"/><rect class="cls-1" x="228.23" y="2.29" width="3.83" height="33.17" rx="1.91" transform="matrix(-0.99, 0.1, -0.1, -0.99, 460.41, 12.6)"/><rect class="cls-1" x="215.88" y="3.91" width="3.83" height="33.17" rx="1.91" transform="translate(435.53 5.69) rotate(171)"/><rect class="cls-1" x="203.64" y="6.18" width="3.83" height="33.17" rx="1.91" transform="translate(410.76 1.32) rotate(168)"/><rect class="cls-1" x="191.53" y="9.09" width="3.83" height="33.17" rx="1.91" transform="translate(386.36 -0.58) rotate(165)"/><rect class="cls-1" x="179.59" y="12.63" width="3.83" height="33.17" rx="1.91" transform="translate(362.57 -0.08) rotate(162)"/><rect class="cls-1" x="167.85" y="16.78" width="3.83" height="33.17" rx="1.91" transform="translate(339.64 2.69) rotate(159)"/><rect class="cls-1" x="156.35" y="21.55" width="3.83" height="33.17" rx="1.91" transform="translate(317.77 7.61) rotate(156)"/><rect class="cls-1" x="145.11" y="26.91" width="3.83" height="33.17" rx="1.91" transform="translate(297.19 14.51) rotate(153)"/><rect class="cls-1" x="134.17" y="32.85" width="3.83" height="33.17" rx="1.91" transform="translate(278.07 23.22) rotate(150)"/><rect class="cls-1" x="123.55" y="39.35" width="3.83" height="33.17" rx="1.91" transform="matrix(-0.84, 0.54, -0.54, -0.84, 260.58, 33.53)"/><rect class="cls-1" x="113.29" y="46.41" width="3.83" height="33.17" rx="1.91" transform="translate(244.85 45.25) rotate(144)"/><rect class="cls-1" x="103.41" y="53.99" width="3.83" height="33.17" rx="1.91" transform="translate(231.01 58.15) rotate(141)"/><rect class="cls-1" x="93.95" y="62.07" width="3.83" height="33.17" rx="1.91" transform="translate(219.15 71.98) rotate(138)"/><rect class="cls-1" x="84.91" y="70.64" width="3.83" height="33.17" rx="1.91" transform="translate(209.32 86.53) rotate(135)"/><rect class="cls-1" x="76.34" y="79.68" width="3.83" height="33.17" rx="1.91" transform="translate(201.57 101.53) rotate(132)"/><rect class="cls-1" x="68.26" y="89.14" width="3.83" height="33.17" rx="1.91" transform="translate(195.91 116.75) rotate(129)"/><rect class="cls-1" x="60.68" y="99.02" width="3.83" height="33.17" rx="1.91" transform="translate(192.33 131.94) rotate(126)"/><rect class="cls-1" x="53.62" y="109.28" width="3.83" height="33.17" rx="1.91" transform="translate(190.77 146.86) rotate(123)"/><rect class="cls-1" x="47.12" y="119.9" width="3.83" height="33.17" rx="1.91" transform="translate(191.16 161.28) rotate(120)"/><rect class="cls-1" x="41.18" y="130.84" width="3.83" height="33.17" rx="1.91" transform="translate(193.43 174.98) rotate(117)"/><rect class="cls-1" x="35.82" y="142.08" width="3.83" height="33.17" rx="1.91" transform="translate(197.44 187.75) rotate(114)"/><rect class="cls-1" x="31.05" y="153.59" width="3.83" height="33.17" rx="1.91" transform="translate(203.06 199.39) rotate(111)"/><rect class="cls-1" x="26.89" y="165.32" width="3.83" height="33.17" rx="1.91" transform="matrix(-0.31, 0.95, -0.95, -0.31, 210.13, 209.73)"/><rect class="cls-1" x="23.36" y="177.26" width="3.83" height="33.17" rx="1.91" transform="translate(218.47 218.62) rotate(105)"/><rect class="cls-1" x="20.45" y="189.37" width="3.83" height="33.17" rx="1.91" transform="translate(227.89 225.91) rotate(102)"/><rect class="cls-1" x="18.18" y="201.61" width="3.83" height="33.17" rx="1.91" transform="translate(238.17 231.49) rotate(99)"/><rect class="cls-1" x="16.56" y="213.96" width="3.83" height="33.17" rx="1.91" transform="translate(249.1 235.28) rotate(96)"/><rect class="cls-1" x="15.58" y="226.37" width="3.83" height="33.17" rx="1.91" transform="translate(260.45 237.21) rotate(93)"/><rect class="cls-1" x="15.25" y="238.82" width="3.83" height="33.17" rx="1.91" transform="translate(271.99 237.25) rotate(90)"/><rect class="cls-1" x="15.58" y="251.26" width="3.83" height="33.17" rx="1.91" transform="translate(283.48 235.37) rotate(87)"/><rect class="cls-1" x="16.56" y="263.68" width="3.83" height="33.17" rx="1.91" transform="translate(294.68 231.61) rotate(84)"/><rect class="cls-1" x="18.18" y="276.02" width="3.83" height="33.17" rx="1.91" transform="translate(305.37 226) rotate(81)"/><rect class="cls-1" x="20.45" y="288.26" width="3.83" height="33.17" rx="1.91" transform="translate(315.32 218.6) rotate(78)"/><rect class="cls-1" x="23.36" y="300.37" width="3.83" height="33.17" rx="1.91" transform="translate(324.3 209.52) rotate(75)"/><rect class="cls-1" x="26.89" y="312.31" width="3.83" height="33.17" rx="1.91" transform="translate(332.12 198.87) rotate(72)"/><rect class="cls-1" x="31.05" y="322.88" width="3.83" height="33.17" rx="1.91" transform="translate(337.49 186.05) rotate(69)"/><rect class="cls-1" x="35.82" y="334.39" width="3.83" height="33.17" rx="1.91" transform="translate(342.43 172.76) rotate(66)"/><rect class="cls-1" x="41.18" y="345.62" width="3.83" height="33.17" rx="1.91" transform="translate(345.67 158.39) rotate(63)"/><rect class="cls-1" x="47.12" y="356.57" width="3.83" height="33.17" rx="1.91" transform="translate(347.09 143.13) rotate(60)"/><rect class="cls-1" x="53.62" y="367.18" width="3.83" height="33.17" rx="1.91" transform="translate(346.56 127.19) rotate(57)"/><rect class="cls-1" x="60.68" y="377.45" width="3.83" height="33.17" rx="1.91" transform="translate(343.99 110.8) rotate(54)"/><rect class="cls-1" x="68.26" y="387.32" width="3.83" height="33.17" rx="1.91" transform="translate(339.32 94.2) rotate(51)"/><rect class="cls-1" x="76.34" y="396.79" width="3.83" height="33.17" rx="1.91" transform="translate(332.51 77.63) rotate(48)"/><rect class="cls-1" x="84.91" y="405.82" width="3.83" height="33.17" rx="1.91" transform="translate(323.53 61.34) rotate(45)"/><rect class="cls-1" x="93.95" y="414.39" width="3.83" height="33.17" rx="1.91" transform="translate(312.42 45.57) rotate(42)"/><rect class="cls-1" x="103.41" y="422.48" width="3.83" height="33.17" rx="1.91" transform="translate(299.2 30.58) rotate(39)"/><rect class="cls-1" x="113.29" y="430.06" width="3.83" height="33.17" rx="1.91" transform="translate(283.95 16.6) rotate(36)"/><rect class="cls-1" x="123.55" y="437.11" width="3.83" height="33.17" rx="1.91" transform="translate(266.76 3.87) rotate(33)"/><rect class="cls-1" x="134.17" y="443.62" width="3.83" height="33.17" rx="1.91" transform="translate(247.75 -7.37) rotate(30)"/><rect class="cls-1" x="145.11" y="449.56" width="3.83" height="33.17" rx="1.91" transform="translate(227.06 -16.93) rotate(27)"/></svg>